<?xml version="1.0" standalone="no"?><!DOCTYPE svg PUBLIC "-//W3C//DTD SVG 1.1//EN" "http://www.w3.org/Graphics/SVG/1.1/DTD/svg11.dtd"><svg width="100%" height="100%" viewBox="0 0 1101 581" version="1.1" xmlns="http://www.w3.org/2000/svg" xmlns:xlink="http://www.w3.org/1999/xlink" xml:space="preserve" style="fill-rule:evenodd;clip-rule:evenodd;stroke-linejoin:round;stroke-miterlimit:1.41421;"><path d="M550.287,529.854l0,41.667l-252.591,-145.833l0,-41.667l252.591,145.833Z" style="fill:#000;"/><path d="M225.527,175.688l0,208.333l108.254,-62.5l0,-41.667l-72.169,41.667l0,-41.667l72.169,-41.666l0,-41.667l-72.169,41.667l0,-41.667l72.169,-41.667l0,-41.666l-108.254,62.5" style="fill:#000;"/><path d="M405.949,71.521l0,208.333l72.169,-41.666l36.085,-62.5l0,-125l-36.085,-20.834l-72.169,41.667ZM442.034,92.354M442.034,92.354l0,125l36.084,-20.833l0,-125l-36.084,20.833Z" style="fill:#000;"/><g><path d="M9.021,467.354l0,-208.333l108.253,-62.5l36.085,20.833l0,125l-36.085,20.834l36.085,20.833l0,41.667l-36.085,20.833l-36.084,-20.833l0,41.666l-36.085,20.834l-36.084,-20.834Z" style="fill:none;stroke-width:10.42px;stroke:#000;"/><path d="M9.021,259.021l36.084,20.833l108.254,-62.5" style="fill:none;stroke-width:10.42px;stroke:#000;"/><path d="M45.105,279.854l0,208.334" style="fill:none;stroke-width:10.42px;stroke:#000;"/><path d="M81.19,300.688l36.084,-20.834l0,41.667l-36.084,20.833l0,-41.666Z" style="fill:none;stroke-width:10.42px;stroke:#000;"/><path d="M81.19,300.688l36.084,20.833" style="fill:none;stroke-width:10.42px;stroke:#000;"/><path d="M81.19,425.688l0,-41.667l36.084,20.833l0,41.667" style="fill:none;stroke-width:10.42px;stroke:#000;"/><path d="M189.443,154.854l0,208.334l36.084,20.833l108.254,-62.5l0,-41.667l-36.085,-20.833l36.085,-20.833l0,-41.667l-36.085,-20.833l36.085,-20.834l0,-41.666l-36.085,-20.834l-108.253,62.5Z" style="fill:none;stroke-width:10.42px;stroke:#000;"/><path d="M333.781,113.188l-108.254,62.5l-36.084,-20.834" style="fill:none;stroke-width:10.42px;stroke:#000;"/><path d="M225.527,175.688l0,208.333" style="fill:none;stroke-width:10.42px;stroke:#000;"/><path d="M297.696,175.688l-36.084,20.833l0,41.667l72.169,-41.667" style="fill:none;stroke-width:10.42px;stroke:#000;"/><path d="M297.696,259.021l-36.084,20.833l0,41.667l72.169,-41.667" style="fill:none;stroke-width:10.42px;stroke:#000;"/><path d="M369.865,50.688l0,208.333l36.084,20.833l72.169,-41.666l36.085,-62.5l0,-125l-72.169,-41.667l-72.169,41.667Z" style="fill:none;stroke-width:10.42px;stroke:#000;"/><path d="M369.865,50.688l36.084,20.833l72.169,-41.667" style="fill:none;stroke-width:10.42px;stroke:#000;"/><path d="M405.949,71.521l0,208.333" style="fill:none;stroke-width:10.42px;stroke:#000;"/><path d="M442.034,92.354l36.084,-20.833l0,125l-36.084,20.833l0,-125Z" style="fill:none;stroke-width:10.42px;stroke:#000;"/><path d="M442.034,175.688l36.084,20.833" style="fill:none;stroke-width:10.42px;stroke:#000;"/><path d="M586.371,50.688l72.169,-41.667l72.169,41.667l0,208.333l-36.084,20.833l-72.169,-41.666l-36.085,-62.5l0,-125Z" style="fill:none;stroke-width:10.42px;stroke:#000;"/><path d="M622.456,29.854l72.169,41.667l36.084,-20.833" style="fill:none;stroke-width:10.42px;stroke:#000;"/><path d="M694.625,71.521l0,208.333" style="fill:none;stroke-width:10.42px;stroke:#000;"/><path d="M622.456,71.521l36.084,20.833l0,125l-36.084,-20.833l0,-125Z" style="fill:none;stroke-width:10.42px;stroke:#000;"/><path d="M622.456,196.521l36.084,-20.833" style="fill:none;stroke-width:10.42px;stroke:#000;"/><path d="M766.793,154.854l72.169,-41.666l36.085,20.833l36.084,62.5l0,125l-72.169,41.667l-36.084,-20.834l-36.085,-62.5l0,-125Z" style="fill:none;stroke-width:10.42px;stroke:#000;"/><path d="M802.878,134.021l36.084,20.833l36.085,62.5l0,125" style="fill:none;stroke-width:10.42px;stroke:#000;"/><path d="M838.962,154.854l36.085,-20.833" style="fill:none;stroke-width:10.42px;stroke:#000;"/><path d="M802.878,300.688l36.084,-20.834" style="fill:none;stroke-width:10.42px;stroke:#000;"/><path d="M875.047,217.354l36.084,-20.833" style="fill:none;stroke-width:10.42px;stroke:#000;"/><path d="M802.878,175.688l36.084,20.833l0,125l-36.084,-20.833l0,-125Z" style="fill:none;stroke-width:10.42px;stroke:#000;"/><path d="M947.215,217.354l36.085,-20.833l108.253,62.5l0,41.667l-36.085,20.833l0,125l-36.084,20.833l-36.084,-20.833l0,-166.667l-36.085,-20.833l0,-41.667Z" style="fill:none;stroke-width:10.42px;stroke:#000;"/><path d="M947.215,217.354l108.253,62.5l36.085,-20.833" style="fill:none;stroke-width:10.42px;stroke:#000;"/><path d="M1055.47,279.854l0,41.667l-36.084,-20.833l0,166.666" style="fill:none;stroke-width:10.42px;stroke:#000;"/><path d="M297.696,384.021l108.253,-62.5l288.676,0l108.253,62.5l0,41.667l-252.591,145.833l-252.591,-145.833l0,-41.667Z" style="fill:none;stroke-width:10.42px;stroke:#000;"/><path d="M550.287,571.521l0,-41.667l252.591,-145.833" style="fill:none;stroke-width:10.42px;stroke:#000;"/><path d="M550.287,529.854l-252.591,-145.833l505.182,0" style="fill:none;stroke-width:10.42px;stroke:#000;"/><path d="M405.949,321.521l-36.084,62.5l180.422,145.833" style="fill:none;stroke-width:10.42px;stroke:#000;"/><path d="M369.865,384.021l108.253,-62.5l-36.084,62.5l108.253,145.833" style="fill:none;stroke-width:10.42px;stroke:#000;"/><path d="M478.118,321.521l36.085,62.5l36.084,145.833" style="fill:none;stroke-width:10.42px;stroke:#000;"/><path d="M514.203,384.021l36.084,-62.5l36.084,62.5l-36.084,145.833" style="fill:none;stroke-width:10.42px;stroke:#000;"/><path d="M586.371,384.021l36.085,-62.5l36.084,62.5l-108.253,145.833" style="fill:none;stroke-width:10.42px;stroke:#000;"/><path d="M622.456,321.521l108.253,62.5l-180.422,145.833" style="fill:none;stroke-width:10.42px;stroke:#000;"/><path d="M694.625,321.521l36.084,62.5" style="fill:none;stroke-width:10.42px;stroke:#000;"/></g><path d="M153.359,217.354l0,125l-36.085,20.834l36.085,20.833l0,41.667l-36.085,20.833l0,-41.667l-36.084,-20.833l0,-41.667l36.084,-20.833l0,-41.667l-36.084,20.834l0,166.666l-36.085,20.834l0,-208.334l108.254,-62.5Z" style="fill:#000;"/><path d="M550.287,529.854l0,41.667l252.591,-145.833l0,-41.667l-252.591,145.833Z" style="fill:#000;"/><path d="M983.3,446.521l0,-166.667l-36.085,-20.833l0,-41.667l108.253,62.5l0,41.667l-36.084,-20.833l0,166.666l-36.084,-20.833Z" style="fill:#000;"/><path d="M622.456,238.188l-36.085,-62.5l0,-125l36.085,-20.834l72.169,41.667l0,208.333l-72.169,-41.666ZM622.456,71.521l36.084,20.833l0,125l-36.084,-20.833l0,-125Z" style="fill:#000;"/><path d="M766.793,154.854l0,125l36.085,62.5l36.084,20.834l36.085,-20.834l0,-125l-36.085,-62.5l-36.084,-20.833l-36.085,20.833ZM802.878,175.688l36.084,20.833l0,125l-36.084,-20.833l0,-125Z" style="fill:#000;"/></svg>