<?xml version="1.0" standalone="no"?><!DOCTYPE svg PUBLIC "-//W3C//DTD SVG 1.1//EN" "http://www.w3.org/Graphics/SVG/1.1/DTD/svg11.dtd"><svg width="100%" height="100%" viewBox="0 0 1250 700" version="1.1" xmlns="http://www.w3.org/2000/svg" xmlns:xlink="http://www.w3.org/1999/xlink" xml:space="preserve" style="fill-rule:evenodd;clip-rule:evenodd;stroke-linejoin:round;stroke-miterlimit:1.41421;"><path d="M0,293.186l0,270.633l78.125,45.105l156.25,-90.211l0,-45.105l39.063,22.552l39.062,-22.552l0,45.105l312.5,180.422l312.5,-180.422l0,-45.105l117.187,-67.659l0,135.317l78.125,45.105l78.126,-45.105l-0.001,-135.317l39.063,-22.552l0,-90.211l-156.25,-90.211l-39.063,22.552l-39.062,-67.658l-78.125,-45.105l-78.125,45.105l0,-90.211l-117.188,-67.658l-117.187,67.658l-117.187,-67.658l-117.188,67.658l0,45.106l-39.063,-22.553l-156.249,90.211l0,45.105l-39.063,-22.552l-156.25,90.211Z" style="fill:#000;"/><g><path d="M703.125,248.08l39.063,-22.553l39.062,22.553l-39.062,22.553l-39.063,-22.553Z" style="fill:#ffa3a8;"/><path d="M898.438,360.844l39.062,-22.553l39.063,22.553l-39.063,22.553l-39.062,-22.553Z" style="fill:#ffa3a8;"/><path d="M898.438,225.527l39.062,-22.552l0,135.316l-39.062,22.553l0,-135.317Z" style="fill:#e3535a;"/><path d="M1132.81,541.266l39.062,-22.553l0,-180.422l-39.062,22.553l0,180.422Z" style="fill:#e3535a;"/><path d="M703.125,248.08l39.063,-22.553l0,-135.316l-39.063,22.553l0,135.316Z" style="fill:#e3535a;"/><path d="M78.125,383.397l39.063,22.552l39.062,-22.552l-39.062,-22.553l-39.063,22.553Z" style="fill:#ffa3a8;"/><path d="M468.75,248.08l39.063,22.553l39.062,-22.553l-39.062,-22.553l-39.063,22.553Z" style="fill:#ffa3a8;"/><path d="M39.063,315.738l39.062,22.553l117.187,-67.658l-39.062,-22.553l-117.187,67.658Z" style="fill:#ffa3a8;"/><path d="M234.375,202.975l39.063,22.552l117.187,-67.658l-39.063,-22.553l-117.187,67.659Z" style="fill:#ffa3a8;"/><path d="M429.688,90.211l39.062,22.553l78.125,-45.106l-39.062,-22.553l-78.125,45.106Z" style="fill:#ffa3a8;"/><path d="M273.438,270.633l39.062,22.553l78.125,-45.106l-39.062,-22.553l-78.125,45.106Z" style="fill:#ffa3a8;"/><path d="M273.438,360.844l39.062,22.553l78.125,-45.106l-39.062,-22.553l-78.125,45.106Z" style="fill:#ffa3a8;"/><path d="M39.063,315.738l0,225.528l39.062,22.553l0,-225.528l-39.062,-22.553Z" style="fill:#ff747b;"/><path d="M234.375,202.975l0,225.527l39.063,22.553l0,-225.528l-39.063,-22.552Z" style="fill:#ff747b;"/><path d="M429.688,90.211l0,225.527l39.062,22.553l0,-225.527l-39.062,-22.553Z" style="fill:#ff747b;"/><path d="M117.188,315.738l0,45.106l39.062,22.553l0,-45.106l-39.062,-22.553Z" style="fill:#ff747b;"/><path d="M117.188,451.055l0,45.105l39.062,22.553l0,-45.105l-39.062,-22.553Z" style="fill:#ff747b;"/><path d="M507.813,90.211l0,135.316l39.062,22.553l0,-135.316l-39.062,-22.553Z" style="fill:#ff747b;"/><path d="M195.313,270.633l0,135.316l-39.063,22.553l39.063,22.553l0,45.105l-39.063,22.553l0,-45.105l-39.062,-22.553l0,-45.106l39.062,-22.552l0,-45.106l-39.062,22.553l0,180.422l-39.063,22.553l0,-225.528l117.188,-67.658Z" style="fill:#e3535a;"/><path d="M273.438,225.527l0,225.528l117.187,-67.658l0,-45.106l-78.125,45.106l0,-45.106l78.125,-45.105l0,-45.106l-78.125,45.106l0,-45.106l78.125,-45.105l0,-45.106l-117.187,67.658" style="fill:#e3535a;"/><path d="M468.75,112.764l0,225.527l78.125,-45.105l39.063,-67.659l0,-135.316l-39.063,-22.553l-78.125,45.106ZM507.813,135.316M507.813,135.316l0,135.317l39.062,-22.553l0,-135.316l-39.062,22.552Z" style="fill:#e3535a;"/><path d="M1093.75,518.713l0,-180.422l-39.062,-22.553l0,-45.105l117.187,67.658l0,45.106l-39.062,-22.553l0,180.422l-39.063,-22.553Z" style="fill:#ff747b;"/><path d="M703.125,293.186l-39.062,-67.659l0,-135.316l39.062,-22.553l78.125,45.106l0,225.527l-78.125,-45.105ZM703.125,112.764l39.063,22.552l0,135.317l-39.063,-22.553l0,-135.316Z" style="fill:#ff747b;"/><path d="M859.375,202.975l0,135.316l39.063,67.658l39.062,22.553l39.063,-22.553l0,-135.316l-39.063,-67.658l-39.062,-22.553l-39.063,22.553ZM898.438,225.527l39.062,22.553l0,135.317l-39.062,-22.553l0,-135.317Z" style="fill:#ff747b;"/><path d="M781.25,112.764l39.063,-22.553l0,225.527l-39.063,22.553l0,-225.527Z" style="fill:#e3535a;"/><path d="M976.563,405.949l39.062,-22.552l0,-135.317l-39.062,22.553l0,135.316Z" style="fill:#e3535a;"/><path d="M703.125,67.658l39.063,-22.553l78.125,45.106l-39.063,22.553l-78.125,-45.106Z" style="fill:#ffa3a8;"/><path d="M898.438,180.422l39.062,-22.553l39.063,22.553l-39.063,22.553l-39.062,-22.553Z" style="fill:#ffa3a8;"/><path d="M1054.69,270.633l39.062,-22.553l117.188,67.658l-39.063,22.553l-117.187,-67.658Z" style="fill:#ffa3a8;"/><path d="M976.563,180.422l39.062,67.658l-39.062,22.553l-39.063,-67.658l39.063,-22.553Z" style="fill:#f58b91;"/><path d="M1210.94,315.738l0,45.106l-39.063,22.553l0,-45.106" style="fill:#e3535a;"/><path d="M468.75,383.397l312.5,0l117.188,67.658l-273.438,157.869l-273.437,-157.869l117.187,-67.658Z" style="fill:#ffa3a8;"/><path d="M625,608.924l0,45.106l273.438,-157.87l0,-45.105l-273.438,157.869Z" style="fill:#e3535a;"/><path d="M625,608.924l0,45.106l-273.437,-157.87l0,-45.105l273.437,157.869Z" style="fill:#ff747b;"/><path d="M429.688,451.055l195.312,157.869l-117.187,-157.869l-78.125,0Z" style="fill:#ff747b;"/><path d="M585.938,451.055l39.062,157.869l39.063,-157.869l-78.125,0Z" style="fill:#ff747b;"/><path d="M742.188,451.055l-117.188,157.869l195.313,-157.869l-78.125,0Z" style="fill:#ff747b;"/><path d="M585.938,451.055l39.062,-67.658l39.063,67.658l-78.125,0Z" style="fill:#e3535a;"/><path d="M820.313,451.055l-117.188,-67.658l39.063,67.658l78.125,0Z" style="fill:#e3535a;"/><path d="M507.813,451.055l39.062,-67.658l-117.187,67.658l78.125,0Z" style="fill:#e3535a;"/><path d="M351.563,451.055l78.125,0l39.062,-67.658l-117.187,67.658Z" style="fill:#ff747b;"/><path d="M781.25,383.397l39.063,67.658l78.125,0l-117.188,-67.658Z" style="fill:#ff747b;"/><path d="M546.875,383.397l39.063,67.658l-78.125,0l39.062,-67.658Z" style="fill:#ff747b;"/><path d="M664.063,451.055l39.062,-67.658l39.063,67.658l-78.125,0Z" style="fill:#ff747b;"/></g></svg>