<?xml version="1.0" standalone="no"?><!DOCTYPE svg PUBLIC "-//W3C//DTD SVG 1.1//EN" "http://www.w3.org/Graphics/SVG/1.1/DTD/svg11.dtd"><svg width="100%" height="100%" viewBox="0 0 1155 646" version="1.1" xmlns="http://www.w3.org/2000/svg" xmlns:xlink="http://www.w3.org/1999/xlink" xml:space="preserve" style="fill-rule:evenodd;clip-rule:evenodd;stroke-linejoin:round;stroke-miterlimit:1.41421;"><path d="M0,270.833l0,250l72.169,41.667l144.337,-83.333l0,-41.667l36.085,20.833l36.084,-20.833l0,41.667l288.675,166.666l288.675,-166.666l0,-41.667l108.254,-62.5l0,125l72.168,41.667l72.169,-41.667l0,-125l36.085,-20.833l0,-83.334l-144.338,-83.333l-36.084,20.833l-36.085,-62.5l-72.169,-41.666l-72.168,41.666l0,-83.333l-108.254,-62.5l-108.253,62.5l-108.253,-62.5l-108.253,62.5l0,41.667l-36.084,-20.834l-144.338,83.334l0,41.666l-36.084,-20.833l-144.338,83.333ZM322.155,412.156l0,0l108.253,-62.5c0.728,-0.339 0.9,-0.478 1.7,-0.619c0.298,-0.052 0.603,-0.052 0.905,-0.079l288.675,0c0.301,0.027 0.603,0.053 0.904,0.079c0.877,0.235 0.878,0.236 1.7,0.619l108.253,62.5c0.248,0.173 0.512,0.326 0.744,0.52c0.698,0.586 1.235,1.353 1.546,2.209c0.278,0.763 0.244,0.981 0.314,1.781l0,41.667c-0.026,0.302 -0.026,0.607 -0.079,0.905c-0.158,0.897 -0.554,1.746 -1.139,2.443c-0.522,0.622 -0.728,0.703 -1.386,1.163l-252.591,145.833c-0.727,0.34 -0.899,0.478 -1.699,0.619c-0.897,0.158 -1.83,0.077 -2.686,-0.235c-0.284,-0.104 -0.549,-0.256 -0.823,-0.384l-252.591,-145.833c-0.657,-0.46 -0.863,-0.541 -1.385,-1.163c-0.586,-0.697 -0.982,-1.546 -1.14,-2.443c-0.052,-0.298 -0.052,-0.603 -0.079,-0.905l0,-41.667c0.003,-0.036 0.006,-0.072 0.009,-0.106c0.004,-0.202 0.02,-0.404 0.048,-0.604c0.031,-0.328 0.083,-0.593 0.257,-1.071c0.118,-0.322 0.267,-0.632 0.444,-0.924c0.081,-0.132 0.167,-0.262 0.26,-0.388c0.227,-0.308 0.488,-0.589 0.776,-0.839l0.002,-0.002l0.001,-0.001c0.01,-0.009 0.02,-0.017 0.03,-0.026l0.001,-0.001l0.003,-0.003l0.017,-0.014l0.008,-0.007l0.005,-0.004l0.003,-0.002c0.181,-0.152 0.373,-0.291 0.574,-0.418c0.054,-0.034 0.11,-0.068 0.166,-0.1ZM582.559,565.507l0,29.639l242.174,-139.82l0,-29.639l-242.174,139.82ZM329.968,455.326l242.174,139.82l0,-29.639l-242.174,-139.82l0,29.639ZM577.35,540.816l-29.43,-118.941l58.861,0l-29.431,118.941ZM566.059,538.551l-86.61,-116.676l57.74,0l28.87,116.676ZM588.642,538.551l28.87,-116.676l57.739,0l-86.609,116.676ZM548.706,532.65l-137.049,-110.775l54.819,0l82.23,110.775ZM605.995,532.65l82.229,-110.775l54.82,0l-137.049,110.775ZM145.017,224.003c0.593,0.118 0.752,0.119 1.314,0.352c0.209,0.087 0.407,0.201 0.611,0.301l36.084,20.833c0.502,0.336 0.649,0.398 1.079,0.828c0.644,0.644 1.112,1.455 1.348,2.335c0.157,0.587 0.138,0.745 0.177,1.348l0,125c-0.039,0.603 -0.02,0.761 -0.177,1.348c-0.236,0.88 -0.704,1.691 -1.348,2.335c-0.43,0.43 -0.577,0.492 -1.079,0.828l-28.272,16.322l28.272,16.323l0.567,0.379c0.17,0.15 0.351,0.288 0.512,0.449c0.644,0.644 1.112,1.455 1.348,2.335c0.157,0.587 0.138,0.745 0.177,1.348l0,41.666c-0.039,0.603 -0.02,0.761 -0.177,1.348c-0.236,0.88 -0.704,1.691 -1.348,2.335c-0.43,0.43 -0.577,0.492 -1.079,0.828l-36.084,20.833c-0.542,0.267 -0.669,0.363 -1.256,0.52c-0.88,0.236 -1.817,0.236 -2.696,0c-0.588,-0.157 -0.715,-0.253 -1.257,-0.52l-28.272,-16.323l0,32.646l-0.044,0.68c-0.044,0.223 -0.074,0.449 -0.133,0.668c-0.236,0.88 -0.704,1.691 -1.348,2.335c-0.43,0.43 -0.577,0.492 -1.079,0.828l-36.084,20.833c-0.542,0.267 -0.669,0.363 -1.256,0.52c-0.88,0.236 -1.817,0.236 -2.696,0c-0.587,-0.157 -0.715,-0.253 -1.256,-0.52l-36.085,-20.833c-0.502,-0.336 -0.649,-0.398 -1.079,-0.828c-0.643,-0.644 -1.112,-1.455 -1.348,-2.335c-0.157,-0.587 -0.138,-0.745 -0.177,-1.348l0,-208.333c0.039,-0.603 0.02,-0.761 0.177,-1.348c0.236,-0.88 0.705,-1.691 1.348,-2.335c0.43,-0.43 0.577,-0.492 1.079,-0.828l108.253,-62.5c0.542,-0.267 0.669,-0.363 1.256,-0.52c0.588,-0.157 0.746,-0.138 1.349,-0.178c0.226,0.015 0.453,0.03 0.679,0.045ZM632.39,524.709l127.224,-102.834l50.889,0l-178.113,102.834ZM522.31,524.709l-178.113,-102.834l50.889,0l127.224,102.834ZM41.293,496.993l25.667,14.819l0,-196.305l-25.667,-14.819l0,196.305ZM175.214,259.021l-97.837,56.486l0,196.305l25.668,-14.819l0,-38.66l0,0l0,-41.666c0.02,-0.593 0.097,-1.164 0.294,-1.726c0.51,-1.451 1.663,-2.624 3.105,-3.158c0.446,-0.165 0.899,-0.25 1.37,-0.306c0.351,-0.018 0.35,-0.018 0.703,-0.012c0.472,0.04 0.928,0.109 1.379,0.259c0.338,0.113 0.648,0.265 0.961,0.432l36.085,20.833c0.389,0.242 0.753,0.502 1.078,0.828c0.725,0.725 1.226,1.661 1.426,2.667c0.067,0.338 0.089,0.672 0.1,1.016l0,32.645l25.668,-14.819l0,-35.652l-33.481,-19.33l-0.602,-0.407c-0.18,-0.162 -0.372,-0.312 -0.54,-0.486c-0.337,-0.349 -0.624,-0.744 -0.852,-1.173c-0.926,-1.74 -0.774,-3.911 0.385,-5.506c0.285,-0.393 0.624,-0.744 1.007,-1.043c0.191,-0.149 0.402,-0.271 0.602,-0.406l33.481,-19.33l0,-112.972ZM1011.04,224.003c0.592,0.118 0.752,0.119 1.313,0.352c0.21,0.087 0.407,0.201 0.611,0.301l108.253,62.5c0.502,0.336 0.649,0.398 1.079,0.828c0.644,0.644 1.112,1.455 1.348,2.335c0.157,0.587 0.138,0.745 0.177,1.348l0,41.666c-0.039,0.603 -0.02,0.761 -0.177,1.349c-0.236,0.879 -0.704,1.69 -1.348,2.334c-0.43,0.43 -0.577,0.493 -1.079,0.828l-33.48,19.33l0,121.993l-0.044,0.679c-0.118,0.593 -0.12,0.752 -0.352,1.314c-0.349,0.841 -0.919,1.584 -1.642,2.139c-0.18,0.138 -0.377,0.252 -0.566,0.378l-36.085,20.833c-0.541,0.267 -0.669,0.363 -1.256,0.521c-0.879,0.235 -1.816,0.235 -2.696,0c-0.587,-0.158 -0.714,-0.254 -1.256,-0.521l-36.084,-20.833c-0.502,-0.335 -0.649,-0.398 -1.079,-0.827c-0.644,-0.644 -1.112,-1.456 -1.348,-2.335c-0.157,-0.587 -0.138,-0.746 -0.177,-1.348l0,-163.66l-33.481,-19.33l-0.566,-0.378c-0.454,-0.398 -0.591,-0.48 -0.961,-0.962c-0.555,-0.722 -0.913,-1.588 -1.032,-2.491c-0.03,-0.225 -0.03,-0.453 -0.045,-0.679l0,-41.667c0.04,-0.602 0.02,-0.761 0.178,-1.348c0.235,-0.879 0.704,-1.691 1.348,-2.335c0.43,-0.429 0.576,-0.492 1.078,-0.827l36.085,-20.834c0.541,-0.267 0.669,-0.363 1.256,-0.52c0.587,-0.157 0.745,-0.138 1.348,-0.178c0.227,0.015 0.453,0.03 0.68,0.045ZM979.487,259.021l0,29.639l33.48,19.33c0.502,0.335 0.649,0.397 1.079,0.827c0.644,0.644 1.112,1.455 1.348,2.335c0.157,0.587 0.138,0.746 0.177,1.348l0,163.66l25.668,14.819l0,-157.646l0.035,-0.604c0.035,-0.199 0.059,-0.4 0.105,-0.597c0.14,-0.59 0.384,-1.154 0.717,-1.661c1.13,-1.719 3.23,-2.624 5.256,-2.267c0.398,0.07 0.787,0.187 1.158,0.347c0.186,0.08 0.361,0.181 0.542,0.272l28.271,16.323l0,-29.639l-97.836,-56.486ZM1051.66,490.979l25.667,-14.819l0,-118.986l-25.667,-14.82l0,148.625ZM113.461,455.326l25.668,14.819l0,-29.638l-25.668,-14.819l0,29.638ZM325.439,119.836c0.593,0.118 0.752,0.12 1.314,0.352c0.209,0.087 0.407,0.201 0.611,0.302l36.084,20.833c0.502,0.335 0.649,0.398 1.079,0.828c0.644,0.643 1.112,1.455 1.348,2.334c0.157,0.587 0.138,0.746 0.177,1.348l0,41.667c-0.039,0.602 -0.02,0.761 -0.177,1.348c-0.236,0.879 -0.704,1.691 -1.348,2.335c-0.43,0.429 -0.577,0.492 -1.079,0.827l-28.272,16.323l28.272,16.323l0.567,0.379c0.17,0.149 0.351,0.288 0.512,0.449c0.644,0.644 1.112,1.455 1.348,2.335c0.157,0.587 0.138,0.745 0.177,1.348l0,41.667c-0.039,0.602 -0.02,0.761 -0.177,1.348c-0.236,0.879 -0.704,1.691 -1.348,2.334c-0.43,0.43 -0.577,0.493 -1.079,0.828l-28.272,16.323l28.272,16.322l0.567,0.379c0.17,0.15 0.351,0.288 0.512,0.449c0.644,0.644 1.112,1.455 1.348,2.335c0.157,0.587 0.138,0.745 0.177,1.348l0,41.667c-0.039,0.602 -0.02,0.761 -0.177,1.348c-0.236,0.879 -0.704,1.691 -1.348,2.335c-0.43,0.429 -0.577,0.492 -1.079,0.827l-108.253,62.5c-0.542,0.267 -0.669,0.363 -1.256,0.521c-0.88,0.235 -1.817,0.235 -2.696,0c-0.587,-0.158 -0.715,-0.254 -1.256,-0.521l-36.085,-20.833c-0.502,-0.336 -0.649,-0.398 -1.079,-0.828c-0.643,-0.644 -1.112,-1.455 -1.348,-2.335c-0.157,-0.587 -0.138,-0.745 -0.177,-1.348l0,-208.333c0.039,-0.603 0.02,-0.761 0.177,-1.348c0.236,-0.88 0.705,-1.691 1.348,-2.335c0.43,-0.43 0.577,-0.492 1.079,-0.828l108.253,-62.499c0.542,-0.267 0.669,-0.363 1.257,-0.521c0.587,-0.157 0.745,-0.138 1.348,-0.177c0.226,0.015 0.453,0.03 0.679,0.044ZM478.118,411.458l54.126,0l-27.063,-46.875l-27.063,46.875ZM344.197,411.458l49.724,0l24.862,-43.062l-74.586,43.062ZM550.287,411.458l54.126,0l-27.063,-46.875l-27.063,46.875ZM416.367,411.458l49.723,0l24.862,-43.062l-74.585,43.062ZM622.456,411.458l54.126,0l-27.063,-46.875l-27.063,46.875ZM688.61,411.458l49.724,0l-74.585,-43.062l24.861,43.062ZM760.779,411.458l49.724,0l-74.586,-43.062l24.862,43.062ZM355.636,154.854l-97.837,56.486l0,196.306l97.837,-56.486l0,-29.639l-64.357,37.156l-0.332,0.176c-0.306,0.135 -0.379,0.177 -0.698,0.278c-0.478,0.152 -0.978,0.234 -1.48,0.243c-2.042,0.037 -3.963,-1.167 -4.821,-3.021c-0.21,-0.455 -0.355,-0.94 -0.427,-1.437c-0.048,-0.331 -0.042,-0.416 -0.054,-0.749l0,-41.667c0.017,-0.49 0.066,-0.963 0.202,-1.436c0.267,-0.934 0.799,-1.785 1.521,-2.435c0.274,-0.246 0.57,-0.445 0.881,-0.64l36.084,-20.833l0,0l33.481,-19.33l0,-29.638l-64.357,37.156l-0.332,0.176c-0.306,0.135 -0.379,0.177 -0.698,0.278c-0.478,0.152 -0.978,0.234 -1.48,0.243c-2.042,0.037 -3.963,-1.167 -4.821,-3.021c-0.21,-0.455 -0.355,-0.941 -0.427,-1.437c-0.048,-0.331 -0.042,-0.416 -0.054,-0.75l0,-41.666c0.017,-0.49 0.066,-0.963 0.202,-1.436c0.267,-0.934 0.799,-1.785 1.521,-2.435c0.274,-0.246 0.57,-0.445 0.881,-0.64l36.084,-20.833l0,0l33.481,-19.33l0,-29.639ZM221.715,392.826l25.667,14.82l0,-196.306l-25.667,-14.819l0,196.305ZM541.266,406.25l-27.063,-46.875l54.126,0l-27.063,46.875ZM613.435,406.25l-27.064,-46.875l54.127,0l-27.063,46.875ZM411.158,402.437l24.862,-43.062l49.724,0l-74.586,43.062ZM743.543,402.437l-74.586,-43.062l49.724,0l24.862,43.062ZM866.705,140.67c0.223,0.044 0.449,0.074 0.668,0.132c0.587,0.158 0.715,0.254 1.257,0.521l36.084,20.833c0.502,0.336 0.649,0.398 1.079,0.828c0.429,0.43 0.492,0.577 0.827,1.079l36.085,62.5c0.267,0.541 0.363,0.669 0.52,1.256c0.157,0.587 0.138,0.745 0.177,1.348l0,125c-0.039,0.602 -0.02,0.761 -0.177,1.348c-0.236,0.88 -0.704,1.691 -1.348,2.335c-0.43,0.43 -0.577,0.492 -1.079,0.827l-72.168,41.667c-0.542,0.267 -0.67,0.363 -1.257,0.52c-0.879,0.236 -1.816,0.236 -2.696,0c-0.587,-0.157 -0.714,-0.253 -1.256,-0.52l-36.084,-20.834c-0.502,-0.335 -0.649,-0.398 -1.079,-0.827c-0.43,-0.43 -0.492,-0.577 -0.828,-1.079l-36.084,-62.5c-0.267,-0.542 -0.363,-0.669 -0.52,-1.256c-0.158,-0.587 -0.138,-0.746 -0.178,-1.348l0,-125c0.04,-0.603 0.02,-0.761 0.178,-1.348c0.235,-0.88 0.704,-1.691 1.348,-2.335c0.43,-0.43 0.576,-0.492 1.078,-0.828l72.169,-41.666c0.542,-0.267 0.669,-0.363 1.256,-0.521c0.587,-0.157 0.746,-0.138 1.348,-0.177c0.227,0.015 0.454,0.03 0.68,0.045ZM829.941,172.681l-30.876,17.826l0,120.597l34.689,60.083l32.271,18.632l30.876,-17.826l0,-120.597l-34.688,-60.083l-32.272,-18.632ZM144.777,307.31c0.589,0.07 1.151,0.195 1.695,0.439c1.402,0.63 2.474,1.879 2.885,3.36c0.127,0.459 0.173,0.917 0.189,1.391l0,41.667c-0.011,0.344 -0.033,0.678 -0.1,1.016c-0.2,1.005 -0.701,1.942 -1.426,2.667c-0.325,0.325 -0.689,0.585 -1.078,0.828l-36.085,20.832c-0.629,0.336 -1.278,0.577 -1.99,0.662c-0.466,0.055 -0.939,0.047 -1.403,-0.024c-1.64,-0.251 -3.092,-1.299 -3.848,-2.776c-0.267,-0.522 -0.445,-1.089 -0.524,-1.671c-0.042,-0.31 -0.037,-0.389 -0.047,-0.701l0,-41.667c0.015,-0.458 0.058,-0.903 0.177,-1.348c0.266,-0.99 0.826,-1.892 1.597,-2.567c0.259,-0.228 0.538,-0.414 0.83,-0.595l36.084,-20.834c0.418,-0.223 0.839,-0.412 1.299,-0.531c0.345,-0.09 0.688,-0.13 1.042,-0.16c0.353,-0.006 0.351,-0.006 0.703,0.012ZM932.986,238.188l-25.668,14.819l0,112.972l25.668,-14.819l0,-112.972ZM113.461,365.979l20.46,-11.812l-20.46,-11.813l0,23.625ZM830.485,203.154c0.478,0.075 0.604,0.076 1.065,0.226c0.462,0.15 0.564,0.223 0.995,0.443l36.085,20.833c0.405,0.264 0.52,0.315 0.88,0.64c0.814,0.732 1.382,1.718 1.61,2.788c0.101,0.475 0.088,0.6 0.114,1.083l0,125c-0.01,0.181 -0.01,0.363 -0.029,0.544c-0.057,0.543 -0.2,1.076 -0.422,1.574c-0.672,1.51 -2.058,2.633 -3.675,2.976c-0.533,0.114 -1.084,0.143 -1.627,0.086c-0.543,-0.057 -1.076,-0.2 -1.574,-0.422c-0.166,-0.074 -0.324,-0.165 -0.486,-0.248l-36.084,-20.833c-0.406,-0.264 -0.52,-0.315 -0.881,-0.64c-0.813,-0.732 -1.382,-1.718 -1.609,-2.788c-0.101,-0.475 -0.089,-0.6 -0.114,-1.083l0,-125c0.009,-0.181 0.009,-0.363 0.028,-0.544c0.038,-0.362 0.114,-0.719 0.227,-1.065c0.51,-1.572 1.771,-2.833 3.344,-3.344c0.346,-0.112 0.703,-0.188 1.065,-0.226c0.18,-0.019 0.363,-0.019 0.544,-0.029c0.181,0.01 0.363,0.019 0.544,0.029ZM860.817,321.521l-20.459,11.812l20.459,11.813l0,-23.625ZM1113.41,300.688l-25.668,14.819l0,29.638l25.668,-14.819l0,-29.638ZM324.759,297.681l-30.876,17.826l0,29.638l56.544,-32.645l-25.668,-14.819ZM118.67,333.333l20.459,11.812l0,-23.624l-20.459,11.812ZM835.149,324.312l25.668,-14.819l0,-77.319l-25.668,-14.819l0,106.957ZM577.35,229.167l-36.084,62.5l-54.127,31.25l180.422,0l-54.126,-31.25l-36.085,-62.5c0,0 0,0 0,0ZM469.777,36.503c0.223,0.044 0.449,0.074 0.668,0.133c0.587,0.157 0.715,0.253 1.256,0.52l72.169,41.667c0.502,0.335 0.649,0.398 1.079,0.827c0.644,0.644 1.112,1.456 1.348,2.335c0.157,0.587 0.138,0.746 0.177,1.348l0,125c-0.039,0.603 -0.02,0.761 -0.177,1.348c-0.158,0.587 -0.254,0.715 -0.521,1.256l-36.084,62.5c-0.335,0.502 -0.398,0.649 -0.828,1.079c-0.429,0.43 -0.576,0.492 -1.078,0.828l-72.169,41.667c-0.542,0.267 -0.669,0.363 -1.256,0.52c-0.88,0.236 -1.817,0.236 -2.696,0c-0.587,-0.157 -0.715,-0.253 -1.256,-0.52l-36.085,-20.834c-0.502,-0.335 -0.649,-0.398 -1.078,-0.828c-0.644,-0.643 -1.113,-1.455 -1.348,-2.334c-0.158,-0.587 -0.138,-0.746 -0.178,-1.348l0,-208.334c0.04,-0.602 0.02,-0.761 0.178,-1.348c0.235,-0.879 0.704,-1.691 1.348,-2.335c0.429,-0.429 0.576,-0.492 1.078,-0.827l72.169,-41.667c0.541,-0.267 0.669,-0.363 1.256,-0.52c0.587,-0.157 0.745,-0.138 1.348,-0.178c0.227,0.015 0.453,0.03 0.68,0.045ZM686.283,36.503c0.223,0.044 0.449,0.074 0.669,0.133c0.587,0.157 0.714,0.253 1.256,0.52l72.168,41.667c0.502,0.335 0.649,0.398 1.079,0.827c0.644,0.644 1.112,1.456 1.348,2.335c0.157,0.587 0.138,0.746 0.177,1.348l0,208.334c-0.039,0.602 -0.02,0.761 -0.177,1.348c-0.236,0.879 -0.704,1.691 -1.348,2.334c-0.43,0.43 -0.577,0.493 -1.079,0.828l-36.084,20.834c-0.542,0.267 -0.669,0.363 -1.256,0.52c-0.88,0.236 -1.817,0.236 -2.696,0c-0.587,-0.157 -0.715,-0.253 -1.256,-0.52l-72.169,-41.667c-0.502,-0.336 -0.649,-0.398 -1.079,-0.828c-0.43,-0.43 -0.492,-0.577 -0.828,-1.079l-36.084,-62.5c-0.267,-0.541 -0.363,-0.669 -0.52,-1.256c-0.157,-0.587 -0.138,-0.745 -0.178,-1.348l0,-125c0.04,-0.602 0.021,-0.761 0.178,-1.348c0.236,-0.879 0.704,-1.691 1.348,-2.335c0.43,-0.429 0.576,-0.492 1.079,-0.827l72.168,-41.667c0.542,-0.267 0.669,-0.363 1.257,-0.52c0.587,-0.157 0.745,-0.138 1.348,-0.178c0.226,0.015 0.453,0.03 0.679,0.045ZM46.501,291.667l25.668,14.819l97.836,-56.486l-25.667,-14.819l-97.837,56.486ZM984.695,250l97.837,56.486l25.667,-14.819l-97.836,-56.486l-25.668,14.819ZM505.182,68.514l-66.961,38.66l0,196.305l63.148,-36.459l34.689,-60.082l0,-120.598l-30.876,-17.826ZM649.519,68.514l-30.876,17.826l0,120.598l34.689,60.082l63.148,36.459l0,-196.305l-66.961,-38.66ZM752.564,92.355l-25.668,14.819l0,196.305l25.668,-14.819l0,-196.305ZM402.137,288.66l25.667,14.819l0,-196.305l-25.667,-14.819l0,196.305ZM324.759,214.347l-30.876,17.827l0,29.638l56.544,-32.645l-25.668,-14.82ZM505.726,98.987c0.179,0.028 0.361,0.047 0.538,0.085c0.356,0.076 0.704,0.188 1.036,0.336c1.338,0.596 2.382,1.756 2.835,3.149c0.112,0.346 0.188,0.703 0.226,1.065c0.019,0.181 0.019,0.363 0.029,0.545l0,125c-0.025,0.483 -0.013,0.607 -0.114,1.083c-0.227,1.07 -0.796,2.055 -1.609,2.787c-0.361,0.325 -0.476,0.377 -0.881,0.64l-36.085,20.833c-0.162,0.083 -0.319,0.174 -0.485,0.248c-0.499,0.222 -1.032,0.365 -1.574,0.422c-0.543,0.057 -1.094,0.028 -1.628,-0.086c-1.617,-0.343 -3.003,-1.466 -3.675,-2.976c-0.222,-0.498 -0.365,-1.031 -0.422,-1.574c-0.019,-0.18 -0.019,-0.363 -0.028,-0.544l0,-125c0.025,-0.483 0.013,-0.608 0.114,-1.083c0.227,-1.07 0.796,-2.055 1.609,-2.787c0.361,-0.325 0.475,-0.377 0.881,-0.64l36.084,-20.834c0.431,-0.22 0.533,-0.293 0.995,-0.443c0.346,-0.112 0.703,-0.188 1.065,-0.226c0.181,-0.019 0.363,-0.019 0.545,-0.029c0.181,0.01 0.363,0.019 0.544,0.029ZM650.063,98.987c0.478,0.075 0.604,0.076 1.065,0.226c0.462,0.15 0.564,0.223 0.995,0.443l36.085,20.834c0.405,0.263 0.52,0.315 0.88,0.64c0.814,0.732 1.382,1.717 1.61,2.787c0.101,0.475 0.088,0.6 0.114,1.083l0,125c-0.01,0.181 -0.01,0.364 -0.029,0.544c-0.057,0.543 -0.2,1.076 -0.422,1.574c-0.221,0.499 -0.522,0.961 -0.887,1.367c-1.106,1.228 -2.771,1.867 -4.415,1.695c-0.543,-0.057 -1.076,-0.2 -1.574,-0.422c-0.166,-0.074 -0.324,-0.165 -0.486,-0.248l-36.084,-20.833c-0.406,-0.263 -0.52,-0.315 -0.881,-0.64c-0.813,-0.732 -1.382,-1.717 -1.61,-2.787c-0.101,-0.476 -0.088,-0.6 -0.113,-1.083l0,-125c0.009,-0.182 0.009,-0.364 0.028,-0.545c0.038,-0.362 0.114,-0.719 0.227,-1.065c0.51,-1.572 1.771,-2.833 3.344,-3.344c0.346,-0.112 0.703,-0.188 1.065,-0.226c0.18,-0.019 0.363,-0.019 0.544,-0.029c0.181,0.01 0.363,0.019 0.544,0.029ZM873.14,189.406l30.876,53.479l27.063,-15.625l-30.876,-53.479l-27.063,15.625ZM680.395,217.354l-20.459,11.813l20.459,11.812l0,-23.625ZM474.306,240.979l20.459,-11.812l-20.459,-11.813l0,23.625ZM499.973,220.146l0,-106.958c-8.556,4.94 -17.112,9.879 -25.667,14.819l0,77.319l25.667,14.82ZM654.727,220.146l25.668,-14.82l0,-77.319l-25.668,-14.819l0,106.958ZM226.923,187.5l25.668,14.819l97.836,-56.486l-25.667,-14.819l-97.837,56.486ZM840.358,166.667l25.667,14.819l25.668,-14.819l-25.668,-14.82l-25.667,14.82ZM659.936,62.5l61.752,35.653l25.668,-14.82l-61.752,-35.652l-25.668,14.819ZM407.345,83.333l25.668,14.82l61.752,-35.653l-25.668,-14.819l-61.752,35.652Z" style="fill:#000005;"/></svg>