<?xml version="1.0" standalone="no"?><!DOCTYPE svg PUBLIC "-//W3C//DTD SVG 1.1//EN" "http://www.w3.org/Graphics/SVG/1.1/DTD/svg11.dtd"><svg width="100%" height="100%" viewBox="0 0 826 436" version="1.1" xmlns="http://www.w3.org/2000/svg" xmlns:xlink="http://www.w3.org/1999/xlink" xml:space="preserve" style="fill-rule:evenodd;clip-rule:evenodd;stroke-linejoin:round;stroke-miterlimit:1.41421;"><g><path d="M6.766,350.516l0,-156.25l81.19,-46.875l27.063,15.625l0,93.75l-27.063,15.625l27.063,15.625l0,31.25l-27.063,15.625l-27.064,-15.625l0,31.25l-27.063,15.625l-27.063,-15.625Z" style="fill:none;stroke-width:7.81px;stroke:#d70005;"/><path d="M6.766,194.266l27.063,15.625l81.19,-46.875" style="fill:none;stroke-width:7.81px;stroke:#d70005;"/><path d="M33.829,209.891l0,156.25" style="fill:none;stroke-width:7.81px;stroke:#d70005;"/><path d="M60.892,225.516l27.064,-15.625l0,31.25l-27.064,15.625l0,-31.25Z" style="fill:none;stroke-width:7.81px;stroke:#d70005;"/><path d="M60.892,225.516l27.064,15.625" style="fill:none;stroke-width:7.81px;stroke:#d70005;"/><path d="M60.892,319.266l0,-31.25l27.064,15.625l0,31.25" style="fill:none;stroke-width:7.81px;stroke:#d70005;"/><path d="M142.082,116.141l0,156.25l27.064,15.625l81.189,-46.875l0,-31.25l-27.063,-15.625l27.063,-15.625l0,-31.25l-27.063,-15.625l27.063,-15.625l0,-31.25l-27.063,-15.625l-81.19,46.875Z" style="fill:none;stroke-width:7.81px;stroke:#d70005;"/><path d="M250.335,84.891l-81.189,46.875l-27.064,-15.625" style="fill:none;stroke-width:7.81px;stroke:#d70005;"/><path d="M169.146,131.766l0,156.25" style="fill:none;stroke-width:7.81px;stroke:#d70005;"/><path d="M223.272,131.766l-27.063,15.625l0,31.25l54.126,-31.25" style="fill:none;stroke-width:7.81px;stroke:#d70005;"/><path d="M223.272,194.266l-27.063,15.625l0,31.25l54.126,-31.25" style="fill:none;stroke-width:7.81px;stroke:#d70005;"/><path d="M277.399,38.016l0,156.25l27.063,15.625l54.127,-31.25l27.063,-46.875l0,-93.75l-54.127,-31.25l-54.126,31.25Z" style="fill:none;stroke-width:7.81px;stroke:#d70005;"/><path d="M277.399,38.016l27.063,15.625l54.127,-31.25" style="fill:none;stroke-width:7.81px;stroke:#d70005;"/><path d="M304.462,53.641l0,156.25" style="fill:none;stroke-width:7.81px;stroke:#d70005;"/><path d="M331.525,69.266l27.064,-15.625l0,93.75l-27.064,15.625l0,-93.75Z" style="fill:none;stroke-width:7.81px;stroke:#d70005;"/><path d="M331.525,131.766l27.064,15.625" style="fill:none;stroke-width:7.81px;stroke:#d70005;"/><path d="M439.779,38.016l54.126,-31.25l54.127,31.25l0,156.25l-27.064,15.625l-54.126,-31.25l-27.063,-46.875l0,-93.75Z" style="fill:none;stroke-width:7.81px;stroke:#d70005;"/><path d="M466.842,22.391l54.126,31.25l27.064,-15.625" style="fill:none;stroke-width:7.81px;stroke:#d70005;"/><path d="M520.968,53.641l0,156.25" style="fill:none;stroke-width:7.81px;stroke:#d70005;"/><path d="M466.842,53.641l27.063,15.625l0,93.75l-27.063,-15.625l0,-93.75Z" style="fill:none;stroke-width:7.81px;stroke:#d70005;"/><path d="M466.842,147.391l27.063,-15.625" style="fill:none;stroke-width:7.81px;stroke:#d70005;"/><path d="M575.095,116.141l54.127,-31.25l27.063,15.625l27.063,46.875l0,93.75l-54.126,31.25l-27.064,-15.625l-27.063,-46.875l0,-93.75Z" style="fill:none;stroke-width:7.81px;stroke:#d70005;"/><path d="M602.158,100.516l27.064,15.625l27.063,46.875l0,93.75" style="fill:none;stroke-width:7.81px;stroke:#d70005;"/><path d="M629.222,116.141l27.063,-15.625" style="fill:none;stroke-width:7.81px;stroke:#d70005;"/><path d="M602.158,225.516l27.064,-15.625" style="fill:none;stroke-width:7.81px;stroke:#d70005;"/><path d="M656.285,163.016l27.063,-15.625" style="fill:none;stroke-width:7.81px;stroke:#d70005;"/><path d="M602.158,131.766l27.064,15.625l0,93.75l-27.064,-15.625l0,-93.75Z" style="fill:none;stroke-width:7.81px;stroke:#d70005;"/><path d="M710.411,163.016l27.064,-15.625l81.19,46.875l0,31.25l-27.064,15.625l0,93.75l-27.063,15.625l-27.063,-15.625l0,-125l-27.064,-15.625l0,-31.25Z" style="fill:none;stroke-width:7.81px;stroke:#d70005;"/><path d="M710.411,163.016l81.19,46.875l27.064,-15.625" style="fill:none;stroke-width:7.81px;stroke:#d70005;"/><path d="M791.601,209.891l0,31.25l-27.063,-15.625l0,125" style="fill:none;stroke-width:7.81px;stroke:#d70005;"/><path d="M223.272,288.016l81.19,-46.875l216.506,0l81.19,46.875l0,31.25l-189.443,109.375l-189.443,-109.375l0,-31.25Z" style="fill:none;stroke-width:7.81px;stroke:#d70005;"/><path d="M412.715,428.641l0,-31.25l189.443,-109.375" style="fill:none;stroke-width:7.81px;stroke:#d70005;"/><path d="M412.715,397.391l-189.443,-109.375l378.886,0" style="fill:none;stroke-width:7.81px;stroke:#d70005;"/><path d="M304.462,241.141l-27.063,46.875l135.316,109.375" style="fill:none;stroke-width:7.81px;stroke:#d70005;"/><path d="M277.399,288.016l81.19,-46.875l-27.064,46.875l81.19,109.375" style="fill:none;stroke-width:7.81px;stroke:#d70005;"/><path d="M358.589,241.141l27.063,46.875l27.063,109.375" style="fill:none;stroke-width:7.81px;stroke:#d70005;"/><path d="M385.652,288.016l27.063,-46.875l27.064,46.875l-27.064,109.375" style="fill:none;stroke-width:7.81px;stroke:#d70005;"/><path d="M439.779,288.016l27.063,-46.875l27.063,46.875l-81.19,109.375" style="fill:none;stroke-width:7.81px;stroke:#d70005;"/><path d="M466.842,241.141l81.19,46.875l-135.317,109.375" style="fill:none;stroke-width:7.81px;stroke:#d70005;"/><path d="M520.968,241.141l27.064,46.875" style="fill:none;stroke-width:7.81px;stroke:#d70005;"/></g></svg>