<?xml version="1.0" standalone="no"?><!DOCTYPE svg PUBLIC "-//W3C//DTD SVG 1.1//EN" "http://www.w3.org/Graphics/SVG/1.1/DTD/svg11.dtd"><svg width="100%" height="100%" viewBox="0 0 867 485" version="1.1" xmlns="http://www.w3.org/2000/svg" xmlns:xlink="http://www.w3.org/1999/xlink" xml:space="preserve" style="fill-rule:evenodd;clip-rule:evenodd;stroke-linejoin:round;stroke-miterlimit:1.41421;"><path d="M0,203.125l0,187.5l54.127,31.25l108.253,-62.5l0,-31.25l27.063,15.625l27.063,-15.625l0,31.25l216.507,125l216.506,-125l0,-31.25l81.19,-46.875l0,93.75l54.127,31.25l54.126,-31.25l0,-93.75l27.063,-15.625l0,-62.5l-108.253,-62.5l-27.063,15.625l-27.063,-46.875l-54.127,-31.25l-54.127,31.25l0,-62.5l-81.189,-46.875l-81.19,46.875l-81.19,-46.875l-81.19,46.875l0,31.25l-27.063,-15.625l-108.254,62.5l0,31.25l-27.063,-15.625l-108.253,62.5Z" style="fill:#292626;"/><path d="M487.139,171.875l27.064,-15.625l27.063,15.625l-27.063,15.625l-27.064,-15.625Z" style="fill:#ffa3a8;"/><path d="M622.456,250l27.063,-15.625l27.063,15.625l-27.063,15.625l-27.063,-15.625Z" style="fill:#ffa3a8;"/><path d="M622.456,156.25l27.063,-15.625l0,93.75l-27.063,15.625l0,-93.75Z" style="fill:#e3535a;"/><path d="M784.836,375l27.063,-15.625l0,-125l-27.063,15.625l0,125Z" style="fill:#e3535a;"/><path d="M487.139,171.875l27.064,-15.625l0,-93.75l-27.064,15.625l0,93.75Z" style="fill:#e3535a;"/><path d="M54.127,265.625l27.063,15.625l27.063,-15.625l-27.063,-15.625l-27.063,15.625Z" style="fill:#ffa3a8;"/><path d="M324.76,171.875l27.063,15.625l27.063,-15.625l-27.063,-15.625l-27.063,15.625Z" style="fill:#ffa3a8;"/><path d="M27.063,218.75l27.064,15.625l81.189,-46.875l-27.063,-15.625l-81.19,46.875Z" style="fill:#ffa3a8;"/><path d="M162.38,140.625l27.063,15.625l81.19,-46.875l-27.063,-15.625l-81.19,46.875Z" style="fill:#ffa3a8;"/><path d="M297.696,62.5l27.064,15.625l54.126,-31.25l-27.063,-15.625l-54.127,31.25Z" style="fill:#ffa3a8;"/><path d="M189.443,187.5l27.063,15.625l54.127,-31.25l-27.063,-15.625l-54.127,31.25Z" style="fill:#ffa3a8;"/><path d="M189.443,250l27.063,15.625l54.127,-31.25l-27.063,-15.625l-54.127,31.25Z" style="fill:#ffa3a8;"/><path d="M27.063,218.75l0,156.25l27.064,15.625l0,-156.25l-27.064,-15.625Z" style="fill:#ff747b;"/><path d="M162.38,140.625l0,156.25l27.063,15.625l0,-156.25l-27.063,-15.625Z" style="fill:#ff747b;"/><path d="M297.696,62.5l0,156.25l27.064,15.625l0,-156.25l-27.064,-15.625Z" style="fill:#ff747b;"/><path d="M81.19,218.75l0,31.25l27.063,15.625l0,-31.25l-27.063,-15.625Z" style="fill:#ff747b;"/><path d="M81.19,312.5l0,31.25l27.063,15.625l0,-31.25l-27.063,-15.625Z" style="fill:#ff747b;"/><path d="M351.823,62.5l0,93.75l27.063,15.625l0,-93.75l-27.063,-15.625Z" style="fill:#ff747b;"/><path d="M135.316,187.5l0,93.75l-27.063,15.625l27.063,15.625l0,31.25l-27.063,15.625l0,-31.25l-27.063,-15.625l0,-31.25l27.063,-15.625l0,-31.25l-27.063,15.625l0,125l-27.063,15.625l0,-156.25l81.189,-46.875Z" style="fill:#e3535a;"/><path d="M189.443,156.25l0,156.25l81.19,-46.875l0,-31.25l-54.127,31.25l0,-31.25l54.127,-31.25l0,-31.25l-54.127,31.25l0,-31.25l54.127,-31.25l0,-31.25l-81.19,46.875" style="fill:#e3535a;"/><path d="M324.76,78.125l0,156.25l54.126,-31.25l27.063,-46.875l0,-93.75l-27.063,-15.625l-54.126,31.25ZM351.823,93.75M351.823,93.75l0,93.75l27.063,-15.625l0,-93.75l-27.063,15.625Z" style="fill:#e3535a;"/><path d="M757.772,359.375l0,-125l-27.063,-15.625l0,-31.25l81.19,46.875l0,31.25l-27.063,-15.625l0,125l-27.064,-15.625Z" style="fill:#ff747b;"/><path d="M487.139,203.125l-27.063,-46.875l0,-93.75l27.063,-15.625l54.127,31.25l0,156.25l-54.127,-31.25ZM487.139,78.125l27.064,15.625l0,93.75l-27.064,-15.625l0,-93.75Z" style="fill:#ff747b;"/><path d="M595.392,140.625l0,93.75l27.064,46.875l27.063,15.625l27.063,-15.625l0,-93.75l-27.063,-46.875l-27.063,-15.625l-27.064,15.625ZM622.456,156.25l27.063,15.625l0,93.75l-27.063,-15.625l0,-93.75Z" style="fill:#ff747b;"/><path d="M541.266,78.125l27.063,-15.625l0,156.25l-27.063,15.625l0,-156.25Z" style="fill:#e3535a;"/><path d="M676.582,281.25l27.064,-15.625l0,-93.75l-27.064,15.625l0,93.75Z" style="fill:#e3535a;"/><path d="M487.139,46.875l27.064,-15.625l54.126,31.25l-27.063,15.625l-54.127,-31.25Z" style="fill:#ffa3a8;"/><path d="M622.456,125l27.063,-15.625l27.063,15.625l-27.063,15.625l-27.063,-15.625Z" style="fill:#ffa3a8;"/><path d="M730.709,187.5l27.063,-15.625l81.19,46.875l-27.063,15.625l-81.19,-46.875Z" style="fill:#ffa3a8;"/><path d="M676.582,125l27.064,46.875l-27.064,15.625l-27.063,-46.875l27.063,-15.625Z" style="fill:#f58b91;"/><path d="M838.962,218.75l0,31.25l-27.063,15.625l0,-31.25" style="fill:#e3535a;"/><path d="M324.76,265.625l216.506,0l81.19,46.875l-189.443,109.375l-189.443,-109.375l81.19,-46.875Z" style="fill:#ffa3a8;"/><path d="M433.013,421.875l0,31.25l189.443,-109.375l0,-31.25l-189.443,109.375Z" style="fill:#e3535a;"/><path d="M433.013,421.875l0,31.25l-189.443,-109.375l0,-31.25l189.443,109.375Z" style="fill:#ff747b;"/><path d="M297.696,312.5l135.317,109.375l-81.19,-109.375l-54.127,0Z" style="fill:#ff747b;"/><path d="M405.949,312.5l27.064,109.375l27.063,-109.375l-54.127,0Z" style="fill:#ff747b;"/><path d="M514.203,312.5l-81.19,109.375l135.316,-109.375l-54.126,0Z" style="fill:#ff747b;"/><path d="M405.949,312.5l27.064,-46.875l27.063,46.875l-54.127,0Z" style="fill:#e3535a;"/><path d="M568.329,312.5l-81.19,-46.875l27.064,46.875l54.126,0Z" style="fill:#e3535a;"/><path d="M351.823,312.5l27.063,-46.875l-81.19,46.875l54.127,0Z" style="fill:#e3535a;"/><path d="M243.57,312.5l54.126,0l27.064,-46.875l-81.19,46.875Z" style="fill:#ff747b;"/><path d="M541.266,265.625l27.063,46.875l54.127,0l-81.19,-46.875Z" style="fill:#ff747b;"/><path d="M378.886,265.625l27.063,46.875l-54.126,0l27.063,-46.875Z" style="fill:#ff747b;"/><path d="M460.076,312.5l27.063,-46.875l27.064,46.875l-54.127,0Z" style="fill:#ff747b;"/></svg>