<?xml version="1.0" standalone="no"?><!DOCTYPE svg PUBLIC "-//W3C//DTD SVG 1.1//EN" "http://www.w3.org/Graphics/SVG/1.1/DTD/svg11.dtd"><svg width="100%" height="100%" viewBox="0 0 812 657" version="1.1" xmlns="http://www.w3.org/2000/svg" xmlns:xlink="http://www.w3.org/1999/xlink" xml:space="preserve" style="fill-rule:evenodd;clip-rule:evenodd;stroke-linejoin:round;stroke-miterlimit:1.41421;"><path d="M0,437.5l0,187.5l54.127,31.25l108.253,-62.5l0,-31.25l27.063,15.625l108.253,-62.5l0,-31.25l27.064,15.625l81.189,-46.875l27.064,-46.875l0,-31.25l54.126,31.25l81.19,-46.875l0,-62.5l54.127,31.25l54.126,-31.25l27.064,-46.875l27.063,15.625l54.127,-31.25l0,-125l27.063,-15.625l0,-62.5l-54.127,-31.25l-108.253,62.5l0,31.25l-27.063,-15.625l-54.127,31.25l-27.063,46.875l-27.063,-15.625l0,-31.25l-81.19,-46.875l-135.317,78.125l-27.063,46.875l0,31.25l54.127,31.25l-54.127,31.25l0,31.25l-27.063,-15.625l-107.989,62.347l-0.265,31.403l-27.063,-15.625l-108.253,62.5Z" style="fill:#292626;"/><path d="M54.127,500l27.063,15.625l27.063,-15.625l-27.063,-15.625l-27.063,15.625Z" style="fill:#ffa3a8;"/><path d="M487.139,125l-81.19,140.625l-81.189,-46.875l27.063,-46.875l108.253,-62.5l27.063,15.625Z" style="fill:#e3535a;"/><path d="M324.76,406.25l27.063,15.625l27.063,-15.625l-27.063,-15.625l-27.063,15.625Z" style="fill:#ffa3a8;"/><path d="M27.063,453.125l27.064,15.625l81.189,-46.875l-27.063,-15.625l-81.19,46.875Z" style="fill:#ffa3a8;"/><path d="M162.38,375l27.063,15.625l81.19,-46.875l-27.063,-15.625l-81.19,46.875Z" style="fill:#ffa3a8;"/><path d="M324.76,156.25l27.063,15.625l108.253,-62.5l-27.063,-15.625l-108.253,62.5Z" style="fill:#ffa3a8;"/><path d="M297.696,296.875l27.064,15.625l54.126,-31.25l-27.063,-15.625l-54.127,31.25Z" style="fill:#ffa3a8;"/><path d="M189.443,421.875l27.063,15.625l54.127,-31.25l-27.063,-15.625l-54.127,31.25Z" style="fill:#ffa3a8;"/><path d="M189.443,484.375l27.063,15.625l54.127,-31.25l-27.063,-15.625l-54.127,31.25Z" style="fill:#ffa3a8;"/><path d="M27.063,453.125l0,156.25l27.064,15.625l0,-156.25l-27.064,-15.625Z" style="fill:#ff747b;"/><path d="M162.38,375l0,156.25l27.063,15.625l0,-156.25l-27.063,-15.625Z" style="fill:#ff747b;"/><path d="M297.696,296.875l0,156.25l27.064,15.625l0,-156.25l-27.064,-15.625Z" style="fill:#ff747b;"/><path d="M81.19,453.125l0,31.25l27.063,15.625l0,-31.25l-27.063,-15.625Z" style="fill:#ff747b;"/><path d="M81.19,546.875l0,31.25l27.063,15.625l0,-31.25l-27.063,-15.625Z" style="fill:#ff747b;"/><path d="M351.823,296.875l0,93.75l27.063,15.625l0,-93.75l-27.063,-15.625Z" style="fill:#ff747b;"/><path d="M135.316,421.875l0,93.75l-27.063,15.625l27.063,15.625l0,31.25l-27.063,15.625l0,-31.25l-27.063,-15.625l0,-31.25l27.063,-15.625l0,-31.25l-27.063,15.625l0,125l-27.063,15.625l0,-156.25l81.189,-46.875Z" style="fill:#e3535a;"/><path d="M189.443,390.625l0,156.25l81.19,-46.875l0,-31.25l-54.127,31.25l0,-31.25l54.127,-31.25l0,-31.25l-54.127,31.25l0,-31.25l54.127,-31.25l0,-31.25l-81.19,46.875" style="fill:#e3535a;"/><path d="M324.76,312.5l0,156.25l54.126,-31.25l27.063,-46.875l0,-93.75l-27.063,-15.625l-54.126,31.25ZM351.823,328.125M351.823,328.125l0,93.75l27.063,-15.625l0,-93.75l-27.063,15.625Z" style="fill:#e3535a;"/><path d="M460.076,328.125l27.063,15.625l27.064,-15.625l-27.064,-15.625l-27.063,15.625Z" style="fill:#ffa3a8;"/><path d="M460.076,203.125l27.063,15.625l54.127,-31.25l-27.063,-15.625l-54.127,31.25Z" style="fill:#ffa3a8;"/><path d="M487.139,218.75l0,93.75l27.064,15.625l0,-93.75l-27.064,-15.625Z" style="fill:#ff747b;"/><path d="M487.139,218.75l-27.063,46.875l0,93.75l27.063,15.625l54.127,-31.25l0,-156.25l-54.127,31.25ZM487.139,250l0,93.75l27.064,-15.625l0,-93.75l-27.064,15.625Z" style="fill:#e3535a;"/><path d="M595.392,250l27.064,15.625l27.063,-15.625l-27.063,-15.625l-27.064,15.625Z" style="fill:#ffa3a8;"/><path d="M595.392,125l27.064,15.625l27.063,-15.625l-27.063,-15.625l-27.064,15.625Z" style="fill:#ffa3a8;"/><path d="M568.329,171.875l0,93.75l27.063,15.625l0,-93.75l-27.063,-15.625Z" style="fill:#ff747b;"/><path d="M433.013,250l0,93.75l27.063,15.625l0,-93.75l-27.063,-15.625Z" style="fill:#ff747b;"/><path d="M703.646,93.75l0,125l27.063,15.625l0,-125l-27.063,-15.625Z" style="fill:#ff747b;"/><path d="M622.456,140.625l0,93.75l27.063,15.625l0,-93.75l-27.063,-15.625Z" style="fill:#ff747b;"/><path d="M595.392,187.5l0,93.75l27.064,15.625l27.063,-15.625l27.063,-46.875l0,-93.75l-27.063,-15.625l-27.063,15.625l-27.064,46.875ZM622.456,171.875M622.456,171.875l0,93.75l27.063,-15.625l0,-93.75l-27.063,15.625Z" style="fill:#e3535a;"/><path d="M595.392,125l-27.063,46.875l27.063,15.625l27.064,-46.875l-27.064,-15.625" style="fill:#ff8a90;"/><path d="M460.076,203.125l-27.063,46.875l27.063,15.625l27.063,-46.875l-27.063,-15.625" style="fill:#ff8a90;"/><path d="M324.76,156.25l-27.064,46.875l27.064,15.625l27.063,-46.875l-27.063,-15.625" style="fill:#ff8a90;"/><path d="M730.709,234.375l0,-125l-27.063,15.625l0,-31.25l81.19,-46.875l0,31.25l-27.064,15.625l0,125l-27.063,15.625Z" style="fill:#e3535a;"/><path d="M676.582,78.125l0,31.25l27.064,15.625l0,-31.25l-27.064,-15.625Z" style="fill:#ff747b;"/><path d="M676.582,78.125l27.064,15.625l81.19,-46.875l-27.064,-15.625l-81.19,46.875Z" style="fill:#ffa3a8;"/><path d="M351.823,171.875l54.126,31.25l54.127,-93.75l-108.253,62.5Z" style="fill:#c93e45;"/></svg>